<svg xmlns="http://www.w3.org/2000/svg" width="32" height="32" viewBox="0 0 32 32">
  <defs>
    <linearGradient id="grad" x1="0%" y1="0%" x2="100%" y2="100%">
      <stop offset="0%" style="stop-color:#667eea;stop-opacity:1" />
      <stop offset="100%" style="stop-color:#764ba2;stop-opacity:1" />
    </linearGradient>
  </defs>
  <rect width="32" height="32" fill="url(#grad)" rx="6"/>
  <path d="M8 12 Q8 8 12 8 L20 8 Q24 8 24 12 L24 20 Q24 24 20 24 L12 24 Q8 24 8 20 Z" fill="white" opacity="0.9"/>
  <circle cx="16" cy="14" r="3" fill="url(#grad)"/>
  <path d="M11 20 Q11 18 13 18 L19 18 Q21 18 21 20 L21 21 Q21 22 20 22 L12 22 Q11 22 11 21 Z" fill="url(#grad)"/>
</svg>